<svg width="109" height="103" viewBox="0 0 109 103" fill="none" xmlns="http://www.w3.org/2000/svg">
<path d="M26.222 33.098L25.1181 33.7249L26.2919 34.2083L26.222 33.098ZM26.222 33.098L27.2765 33.5323M26.222 33.098L27 32.6563L27.2765 33.5323M27.2765 33.5323L27.301 33.6099L27.3938 33.5806L27.2765 33.5323ZM7.14346 33.4105C6.83868 34.0095 6.6458 34.6237 6.55134 35.2341L46.3117 74.0179L46.5 75L46.3076 74.0187L46.3106 74.0181C45.9668 74.0844 41.4403 75.1137 36.5918 76.6346C34.3552 77.3363 32.0279 78.1493 30 79.029V58.239C30 57.1118 29.6525 55.9534 28.7469 55.3666C27.7076 54.6933 26.5295 55.1036 25.6453 55.9394C23.2854 58.1701 19.9713 62.1367 17.169 65.7158C15.7617 67.5133 14.4715 69.2284 13.4797 70.6015C12.5135 71.9391 11.7713 73.032 11.522 73.5388L1.62114 93.6579C0.659167 95.6126 0.877404 97.7635 1.84326 99.3833C2.81101 101.006 4.57741 102.16 6.70771 101.982L100.761 94.1145C103.856 93.8556 105.966 90.8686 105.597 87.7343L103.382 68.9205C103.345 68.6126 103.286 68.3125 103.206 68.0221L103.202 67.9848C102.977 66.1101 101.893 64.4445 100.263 63.5963L100.224 63.5756L100.182 63.5586L27.3959 33.5815L27.4018 33.5781L59.2809 23.5175C59.2807 23.518 59.2872 23.5171 59.3016 23.515C59.3443 23.509 59.4564 23.4932 59.6705 23.4741C59.9447 23.4496 60.3142 23.4249 60.7655 23.4009C61.6664 23.3531 62.865 23.3093 64.2214 23.2739C66.9338 23.2031 70.2543 23.1661 73.0442 23.1944C74.3419 23.2076 74.8552 23.7023 75.0059 24.0805C75.1687 24.489 75.1206 25.2713 74.2438 26.2622L62.1152 39.9701C61.0286 41.1981 60.3875 42.7289 61.0149 43.9979C61.693 45.3693 63.3579 45.5609 64.9584 45.1465C70.6998 43.66 79.6204 40.6641 87.1773 37.7558C90.9569 36.3012 94.4171 34.8602 96.9806 33.6325C98.259 33.0203 99.3391 32.4495 100.131 31.9468C100.525 31.6966 100.874 31.4467 101.146 31.2011C101.383 30.9878 101.706 30.6537 101.826 30.214L107.784 8.27769C108.792 4.57053 106.081 0.65641 102.239 1.02299L22.4285 8.63728C20.6409 8.80782 19.0901 9.93124 18.2562 11.5703L7.14346 33.4105ZM69.559 69.46L71.1954 70.1582L72.9413 69.8159L71.3049 69.1177L69.559 69.46ZM30 80.1217C29.6554 80.2759 29.3214 80.4319 29 80.5893V79.4801L30 80.1217ZM98.4942 93.3006L99.7208 93.198L100.677 93.118C103.126 92.9132 104.917 90.5103 104.604 87.8512L104.555 87.4336L102.389 69.0374C102.355 68.7523 102.299 68.4766 102.222 68.2124L102.209 68.1036C102.02 66.5293 101.114 65.1665 99.8017 64.4833L98.4942 93.3006Z" fill="url(#paint0_linear_10_19)" stroke="white" stroke-width="2"/>
<defs>
<linearGradient id="paint0_linear_10_19" x1="198" y1="-104.5" x2="7.99999" y2="101" gradientUnits="userSpaceOnUse">
<stop stop-color="white" stop-opacity="0"/>
<stop offset="1" stop-color="#005579"/>
</linearGradient>
</defs>
</svg>
